<svg xmlns="http://www.w3.org/2000/svg" width="1200" height="318"><g fill="none" fill-rule="nonzero"><path fill="#000" d="M119.609 224.31a64.416 64.416 0 0 1-48.93 22.779C26.508 247.089 0 213.842 0 158.183c0-52.936 30.237-87.886 75.091-87.886 17.672 0 36.366 8.478 47.92 21.719h.693V76.784a2.815 2.815 0 0 1 2.817-2.803h36.851a2.805 2.805 0 0 1 2.807 2.803v161.431C166.159 293.241 139.66 318 81.547 318c-21.4 0-42.484-3.189-62.02-10.181a2.842 2.842 0 0 1-1.855-2.694V273.89a2.802 2.802 0 0 1 1.213-2.313 2.81 2.81 0 0 1 2.595-.312c21.153 8.111 36.872 11.41 52.64 11.41 32.616 0 46.213-10.519 46.213-35.654V224.24l-.724.07Zm-33.976-13.914c10.532 0 21.718-4.467 32.607-13.39a2.852 2.852 0 0 0 .992-2.199v-74.1a2.852 2.852 0 0 0-.992-2.11c-9.58-8.586-19.834-12.726-32.022-12.726-23.106 0-37.684 19.689-37.684 51.926.06 34.277 13.308 52.599 37.1 52.599ZM339.16 154.4v16.836a2.815 2.815 0 0 1-2.816 2.813h-99.586a2.82 2.82 0 0 0-2.807 3.04c1.835 27.038 19.587 39.031 47.77 39.031 18.06 0 33.56-4.843 47.8-10.617a2.8 2.8 0 0 1 2.62.276 2.792 2.792 0 0 1 1.228 2.329v29.275a2.783 2.783 0 0 1-1.646 2.556 150.226 150.226 0 0 1-57.816 11.815c-48.93 0-87.666-28.167-87.666-91.283 0-51.58 28.878-90.263 79.851-90.263 48.94.04 73.069 33.633 73.069 84.192Zm-102.402-11.192h56.676a2.828 2.828 0 0 0 2.806-2.97c-.823-20.452-10.333-34.367-28.819-34.367-21.034 0-31.893 14.153-33.47 34.257a2.82 2.82 0 0 0 2.807 3.08ZM804.614 251.793c-51.994 0-86.992-36.644-86.992-91.283 0-53.955 36.356-90.263 89.372-90.263 54.365 0 89.025 35.97 89.025 91.957 0 52.262-38.399 89.59-91.405 89.59Zm2.37-145.238c-24.465 0-40.441 20.362-40.441 53.619 0 34.277 15.63 54.975 40.441 54.975 24.466 0 40.432-21.045 40.432-53.282.01-34.277-15.64-55.312-40.432-55.312ZM962.354 135.434V243.9a2.815 2.815 0 0 1-2.817 2.803h-41.264a2.815 2.815 0 0 1-2.817-2.803V76.784a2.815 2.815 0 0 1 2.817-2.803h37.526a2.815 2.815 0 0 1 2.816 2.803v28.72h.992c22.174-25.749 37.159-34.583 59.66-35.247a2.802 2.802 0 0 1 2.023.804c.538.53.839 1.254.833 2.009v39.18a2.795 2.795 0 0 1-2.757 2.792c-20.399.565-41.65 7.24-55.951 18.114a2.831 2.831 0 0 0-1.061 2.278ZM1150.538 245.395l-43.813-69.623a2.807 2.807 0 0 0-4.413-.456l-14.042 14.579a2.82 2.82 0 0 0-.794 1.98v52.055a2.805 2.805 0 0 1-2.816 2.763h-41.275a2.805 2.805 0 0 1-2.806-2.803V2.803A2.805 2.805 0 0 1 1043.385 0h41.275a2.805 2.805 0 0 1 2.806 2.803v127.075a2.813 2.813 0 0 0 1.84 2.644 2.819 2.819 0 0 0 3.119-.812l49.257-57.095a2.818 2.818 0 0 1 2.133-.99h44.477a2.817 2.817 0 0 1 2.56 1.653 2.81 2.81 0 0 1-.447 3.011l-54.296 61.621a2.8 2.8 0 0 0-.248 3.368l63.687 99.037a2.8 2.8 0 0 1 .11 2.866 2.807 2.807 0 0 1-2.47 1.462h-44.27a2.817 2.817 0 0 1-2.38-1.248ZM442.307 215.15c-11.9 0-21.41-3.734-21.41-18.67v-86.103a2.815 2.815 0 0 1 2.816-2.802h29.443a2.818 2.818 0 0 0 2.238-1.113 2.81 2.81 0 0 0 .47-2.453l-7.765-27.978a2.806 2.806 0 0 0-2.708-2.05h-21.678a2.815 2.815 0 0 1-2.817-2.813V28.582a2.815 2.815 0 0 0-2.806-2.743h-41.274a2.815 2.815 0 0 0-2.807 2.813v42.586a2.815 2.815 0 0 1-2.816 2.812h-22.571a2.815 2.815 0 0 0-2.777 2.734v27.978a2.815 2.815 0 0 0 2.816 2.813h22.571a2.815 2.815 0 0 1 2.817 2.802v86.44c0 29.603 12.406 46.816 35.165 52.679 1.307.364 2.63.661 3.967.891 3.528.66 7.096 1.08 10.68 1.258 11.276.683 28.443-.129 49.298-6.933a2.812 2.812 0 0 0 1.825-3.427l-7.607-27.453a2.803 2.803 0 0 0-3.45-1.98 81.151 81.151 0 0 1-21.62 3.297ZM542.806 186.983h-.337L514.83 76.11a2.796 2.796 0 0 0-2.727-2.129h-40.015c-.878 0-1.706.408-2.238 1.106a2.8 2.8 0 0 0-.47 2.45l46.353 167.106a2.817 2.817 0 0 0 2.667 2.05h42.97a2.817 2.817 0 0 0 2.748-1.98l18.029-63.454a2.81 2.81 0 0 0 0-1.516l-15.977-57.64a2.806 2.806 0 0 0-5.414 0l-17.95 64.88Z"/><path fill="#F26C46" d="M733.797.09H719.22c-16.138.506-29.963 11.685-33.817 27.343l-38.993 159.55h-.338l-21.39-76.487a2.816 2.816 0 0 0-2.708-2.06h-35.027a2.818 2.818 0 0 0-2.237 1.113 2.81 2.81 0 0 0-.47 2.453l9.53 34.257 27.292 98.384a2.818 2.818 0 0 0 2.717 2.06h43.288a2.807 2.807 0 0 0 2.707-2.06L736.504 3.674a2.8 2.8 0 0 0-.454-2.47A2.808 2.808 0 0 0 733.797.09Z"/></g></svg>