<svg xmlns="http://www.w3.org/2000/svg" xmlns:xlink="http://www.w3.org/1999/xlink" width="1440" height="506"><defs><path id="a" d="M0 0h1440v368l-5.477 2.745c-181.329 90.12-419.503 135.18-714.523 135.18-298 0-538-45.975-720-137.925V0Z"/></defs><g fill="none" fill-rule="evenodd"><mask id="b" fill="#fff"><use xlink:href="#a"/></mask><use xlink:href="#a" fill="#AEE2DF"/><g mask="url(#b)"><path fill="#FFF" fill-rule="nonzero" d="M-1-26.6h1441V533H-1z" opacity=".8"/><path fill="#AEE2DF" fill-rule="nonzero" d="M-1-27h1441.2v560H-1z" opacity=".87"/><path d="M217.2 101h1046.4v406.9H217.2z"/><path fill="#AEE2DF" fill-rule="nonzero" d="M217.2 386c59.4-.7 124 17.8 174-14.2 50.1-32 64.1-96.8 85.9-152.1C497.8 167.2 519 114.5 515 58.2c-2.1-29.5-10.4-57.1-21.6-83.8-28.6-1.4-19.3-1.4-41.7-1.4H-1v368.8c11.8 13.5 25.2 25.3 41.5 34 53.1 28.5 116.6 10.9 176.7 10.2"/><path fill="#D9FEFC" fill-rule="nonzero" d="M970.1 533c-4.6-22.3-7.5-44.9-6.5-68.3 2.5-62.3 8.1-127.5 45.1-177.7 38.2-52 99.8-79 160.2-101.7 64.3-24.2 132.3-49.4 199.2-33.4 25.6 6.1 49.8 16.5 72.2 30.2L1439 533H970.1Z" opacity=".2"/></g></g></svg>